<svg width="1024" height="1024" viewBox="0 0 1024 1024" fill="none" xmlns="http://www.w3.org/2000/svg">
  <defs>
    <linearGradient id="grad1" x1="0%" y1="0%" x2="100%" y2="100%">
      <stop offset="0%" style="stop-color:#667eea;stop-opacity:1" />
      <stop offset="50%" style="stop-color:#764ba2;stop-opacity:1" />
      <stop offset="100%" style="stop-color:#f093fb;stop-opacity:1" />
    </linearGradient>
  </defs>
  
  <!-- Background Circle -->
  <circle cx="512" cy="512" r="512" fill="url(#grad1)"/>
  
  <!-- Brain Icon -->
  <path d="M512 256 C384 256 288 352 288 480 C288 512 296 544 312 568 L312 736 C312 768 336 792 368 792 L656 792 C688 792 712 768 712 736 L712 568 C728 544 736 512 736 480 C736 352 640 256 512 256 Z" 
        fill="white" opacity="0.9"/>
  
  <!-- Chat Bubble -->
  <circle cx="512" cy="500" r="120" fill="white" opacity="0.3"/>
  <circle cx="450" cy="480" r="20" fill="white"/>
  <circle cx="512" cy="480" r="20" fill="white"/>
  <circle cx="574" cy="480" r="20" fill="white"/>
</svg>

